<?xml version="1.0" encoding="utf-8" standalone="no"?>
<!DOCTYPE svg PUBLIC "-//W3C//DTD SVG 1.1//EN"
  "http://www.w3.org/Graphics/SVG/1.1/DTD/svg11.dtd">
<!-- Created with matplotlib (https://matplotlib.org/) -->
<svg height="328.063875pt" version="1.1" viewBox="0 0 407.135625 328.063875" width="407.135625pt" xmlns="http://www.w3.org/2000/svg" xmlns:xlink="http://www.w3.org/1999/xlink">
 <metadata>
  <rdf:RDF xmlns:cc="http://creativecommons.org/ns#" xmlns:dc="http://purl.org/dc/elements/1.1/" xmlns:rdf="http://www.w3.org/1999/02/22-rdf-syntax-ns#">
   <cc:Work>
    <dc:type rdf:resource="http://purl.org/dc/dcmitype/StillImage"/>
    <dc:date>2023-09-02T20:55:51.425927</dc:date>
    <dc:format>image/svg+xml</dc:format>
    <dc:creator>
     <cc:Agent>
      <dc:title>Matplotlib v3.3.2, https://matplotlib.org/</dc:title>
     </cc:Agent>
    </dc:creator>
   </cc:Work>
  </rdf:RDF>
 </metadata>
 <defs>
  <style type="text/css">*{stroke-linecap:butt;stroke-linejoin:round;}</style>
 </defs>
 <g id="figure_1">
  <g id="patch_1">
   <path d="M 0 328.063875 
L 407.135625 328.063875 
L 407.135625 0 
L 0 0 
z
" style="fill:#ffffff;"/>
  </g>
  <g id="axes_1">
   <g id="patch_2">
    <path d="M 42.815625 288.9045 
L 399.935625 288.9045 
L 399.935625 22.7925 
L 42.815625 22.7925 
z
" style="fill:#ffffff;"/>
   </g>
   <g id="matplotlib.axis_1">
    <g id="xtick_1">
     <g id="line2d_1">
      <path clip-path="url(#pa782c27964)" d="M 58.694312 288.9045 
L 58.694312 22.7925 
" style="fill:none;stroke:#b0b0b0;stroke-linecap:square;stroke-width:0.8;"/>
     </g>
     <g id="line2d_2">
      <defs>
       <path d="M 0 0 
L 0 3.5 
" id="m89c400bc1b" style="stroke:#000000;stroke-width:0.8;"/>
      </defs>
      <g>
       <use style="stroke:#000000;stroke-width:0.8;" x="58.694312" xlink:href="#m89c400bc1b" y="288.9045"/>
      </g>
     </g>
     <g id="text_1">
      <!-- 0 -->
      <g transform="translate(55.762281 303.89825)scale(0.1 -0.1)">
       <defs>
        <path d="M 4.4375 36.328125 
Q 4.4375 56.34375 11.078125 66.625 
Q 17.71875 76.90625 30.328125 76.90625 
Q 54.34375 76.90625 54.34375 38.140625 
Q 54.34375 19 47.578125 8.859375 
Q 40.828125 -1.265625 28.609375 -1.265625 
Q 17.09375 -1.265625 10.765625 8.34375 
Q 4.4375 17.96875 4.4375 36.328125 
z
M 14.203125 36.765625 
Q 14.203125 6.640625 29.5 6.640625 
Q 44.53125 6.640625 44.53125 37.25 
Q 44.53125 68.953125 29.78125 68.953125 
Q 14.203125 68.953125 14.203125 36.765625 
z
" id="MicrosoftYaHei-48"/>
       </defs>
       <use xlink:href="#MicrosoftYaHei-48"/>
      </g>
     </g>
    </g>
    <g id="xtick_2">
     <g id="line2d_3">
      <path clip-path="url(#pa782c27964)" d="M 129.502283 288.9045 
L 129.502283 22.7925 
" style="fill:none;stroke:#b0b0b0;stroke-linecap:square;stroke-width:0.8;"/>
     </g>
     <g id="line2d_4">
      <g>
       <use style="stroke:#000000;stroke-width:0.8;" x="129.502283" xlink:href="#m89c400bc1b" y="288.9045"/>
      </g>
     </g>
     <g id="text_2">
      <!-- 200 -->
      <g transform="translate(120.706189 303.89825)scale(0.1 -0.1)">
       <defs>
        <path d="M 41.65625 55.8125 
Q 41.65625 61.921875 37.796875 65.40625 
Q 33.9375 68.890625 27.296875 68.890625 
Q 22.609375 68.890625 17.8125 66.5 
Q 13.03125 64.109375 8.890625 59.671875 
L 8.890625 68.953125 
Q 12.59375 72.796875 17.296875 74.84375 
Q 22.015625 76.90625 28.375 76.90625 
Q 38.625 76.90625 44.875 71.40625 
Q 51.125 65.921875 51.125 56.546875 
Q 51.125 48.1875 47.28125 42.078125 
Q 43.453125 35.984375 34.1875 29.59375 
Q 24.703125 23.046875 21.5 20.21875 
Q 18.3125 17.390625 17.03125 14.796875 
Q 15.765625 12.203125 15.765625 8.5 
L 53.375 8.5 
L 53.375 0 
L 5.8125 0 
L 5.8125 3.765625 
Q 5.8125 10.296875 7.59375 14.859375 
Q 9.375 19.4375 13.46875 23.75 
Q 17.578125 28.078125 26.265625 34.125 
Q 35.15625 40.375 38.40625 45.09375 
Q 41.65625 49.8125 41.65625 55.8125 
z
" id="MicrosoftYaHei-50"/>
       </defs>
       <use xlink:href="#MicrosoftYaHei-50"/>
       <use x="58.642578" xlink:href="#MicrosoftYaHei-48"/>
       <use x="117.285156" xlink:href="#MicrosoftYaHei-48"/>
      </g>
     </g>
    </g>
    <g id="xtick_3">
     <g id="line2d_5">
      <path clip-path="url(#pa782c27964)" d="M 200.310254 288.9045 
L 200.310254 22.7925 
" style="fill:none;stroke:#b0b0b0;stroke-linecap:square;stroke-width:0.8;"/>
     </g>
     <g id="line2d_6">
      <g>
       <use style="stroke:#000000;stroke-width:0.8;" x="200.310254" xlink:href="#m89c400bc1b" y="288.9045"/>
      </g>
     </g>
     <g id="text_3">
      <!-- 400 -->
      <g transform="translate(191.51416 303.89825)scale(0.1 -0.1)">
       <defs>
        <path d="M 45.40625 75.640625 
L 45.40625 25.6875 
L 56.734375 25.6875 
L 56.734375 17.78125 
L 45.40625 17.78125 
L 45.40625 0 
L 36.140625 0 
L 36.140625 17.78125 
L 0.828125 17.78125 
L 0.828125 25.25 
Q 10.25 35.84375 19.765625 49.65625 
Q 29.296875 63.484375 35.5 75.640625 
z
M 11.578125 25.6875 
L 36.140625 25.6875 
L 36.140625 61.71875 
Q 31.0625 52.59375 25.25 44.015625 
Q 19.4375 35.453125 11.578125 25.6875 
z
" id="MicrosoftYaHei-52"/>
       </defs>
       <use xlink:href="#MicrosoftYaHei-52"/>
       <use x="58.642578" xlink:href="#MicrosoftYaHei-48"/>
       <use x="117.285156" xlink:href="#MicrosoftYaHei-48"/>
      </g>
     </g>
    </g>
    <g id="xtick_4">
     <g id="line2d_7">
      <path clip-path="url(#pa782c27964)" d="M 271.118224 288.9045 
L 271.118224 22.7925 
" style="fill:none;stroke:#b0b0b0;stroke-linecap:square;stroke-width:0.8;"/>
     </g>
     <g id="line2d_8">
      <g>
       <use style="stroke:#000000;stroke-width:0.8;" x="271.118224" xlink:href="#m89c400bc1b" y="288.9045"/>
      </g>
     </g>
     <g id="text_4">
      <!-- 600 -->
      <g transform="translate(262.322131 303.89825)scale(0.1 -0.1)">
       <defs>
        <path d="M 49.703125 65.921875 
Q 43.796875 68.953125 37.359375 68.953125 
Q 27.546875 68.953125 21.578125 60.40625 
Q 15.625 51.859375 15.53125 37.0625 
L 15.765625 37.0625 
Q 21.140625 47.46875 32.90625 47.46875 
Q 42.71875 47.46875 48.578125 41.0625 
Q 54.4375 34.671875 54.4375 24.078125 
Q 54.4375 12.984375 47.671875 5.859375 
Q 40.921875 -1.265625 30.421875 -1.265625 
Q 18.890625 -1.265625 12.328125 7.734375 
Q 5.765625 16.75 5.765625 33.296875 
Q 5.765625 53.328125 14.375 65.109375 
Q 23 76.90625 37.0625 76.90625 
Q 45.125 76.90625 49.703125 74.703125 
z
M 16.109375 24.75 
Q 16.109375 17.28125 20.09375 11.953125 
Q 24.078125 6.640625 30.671875 6.640625 
Q 36.921875 6.640625 40.828125 11.234375 
Q 44.734375 15.828125 44.734375 23.046875 
Q 44.734375 30.859375 41.046875 35.203125 
Q 37.359375 39.546875 30.5625 39.546875 
Q 24.125 39.546875 20.109375 35.15625 
Q 16.109375 30.765625 16.109375 24.75 
z
" id="MicrosoftYaHei-54"/>
       </defs>
       <use xlink:href="#MicrosoftYaHei-54"/>
       <use x="58.642578" xlink:href="#MicrosoftYaHei-48"/>
       <use x="117.285156" xlink:href="#MicrosoftYaHei-48"/>
      </g>
     </g>
    </g>
    <g id="xtick_5">
     <g id="line2d_9">
      <path clip-path="url(#pa782c27964)" d="M 341.926195 288.9045 
L 341.926195 22.7925 
" style="fill:none;stroke:#b0b0b0;stroke-linecap:square;stroke-width:0.8;"/>
     </g>
     <g id="line2d_10">
      <g>
       <use style="stroke:#000000;stroke-width:0.8;" x="341.926195" xlink:href="#m89c400bc1b" y="288.9045"/>
      </g>
     </g>
     <g id="text_5">
      <!-- 800 -->
      <g transform="translate(333.130101 303.89825)scale(0.1 -0.1)">
       <defs>
        <path d="M 4.78125 21.09375 
Q 4.78125 27.640625 8.6875 33.15625 
Q 12.59375 38.671875 18.75 41.015625 
Q 13.8125 43.796875 10.9375 48.140625 
Q 8.0625 52.484375 8.0625 57.5625 
Q 8.0625 62.9375 10.8125 67.375 
Q 13.578125 71.828125 18.484375 74.359375 
Q 23.390625 76.90625 29.296875 76.90625 
Q 35.25 76.90625 40.1875 74.390625 
Q 45.125 71.875 47.859375 67.421875 
Q 50.59375 62.984375 50.59375 57.5625 
Q 50.59375 52.59375 47.78125 48.21875 
Q 44.96875 43.84375 39.984375 41.015625 
Q 46.140625 38.625 50 33.109375 
Q 53.859375 27.59375 53.859375 21.09375 
Q 53.859375 14.65625 50.78125 9.546875 
Q 47.703125 4.4375 42.03125 1.609375 
Q 36.375 -1.21875 29.296875 -1.21875 
Q 22.265625 -1.21875 16.640625 1.609375 
Q 11.03125 4.4375 7.90625 9.5625 
Q 4.78125 14.703125 4.78125 21.09375 
z
M 14.15625 21.53125 
Q 14.15625 14.796875 18.3125 10.734375 
Q 22.46875 6.6875 29.34375 6.6875 
Q 36.078125 6.6875 40.34375 10.8125 
Q 44.625 14.9375 44.625 21.53125 
Q 44.625 27.78125 40.296875 32.046875 
Q 35.984375 36.328125 29.34375 36.328125 
Q 22.75 36.328125 18.453125 32.15625 
Q 14.15625 27.984375 14.15625 21.53125 
z
M 16.890625 56.78125 
Q 16.890625 51.703125 20.5 48.0625 
Q 24.125 44.4375 29.34375 44.4375 
Q 34.46875 44.4375 38.203125 48.09375 
Q 41.9375 51.765625 41.9375 56.78125 
Q 41.9375 61.921875 38.34375 65.484375 
Q 34.765625 69.046875 29.34375 69.046875 
Q 23.96875 69.046875 20.421875 65.546875 
Q 16.890625 62.0625 16.890625 56.78125 
z
" id="MicrosoftYaHei-56"/>
       </defs>
       <use xlink:href="#MicrosoftYaHei-56"/>
       <use x="58.642578" xlink:href="#MicrosoftYaHei-48"/>
       <use x="117.285156" xlink:href="#MicrosoftYaHei-48"/>
      </g>
     </g>
    </g>
    <g id="text_6">
     <!-- Generation Number -->
     <g transform="translate(173.525625 318.377937)scale(0.1 -0.1)">
      <defs>
       <path d="M 66.9375 5.171875 
Q 55.609375 -1.265625 41.359375 -1.265625 
Q 24.953125 -1.265625 14.921875 9.109375 
Q 4.890625 19.484375 4.890625 36.8125 
Q 4.890625 54.34375 15.96875 65.625 
Q 27.046875 76.90625 44.390625 76.90625 
Q 56.640625 76.90625 65.140625 73 
L 65.140625 62.453125 
Q 56.0625 68.171875 43.5 68.171875 
Q 31.15625 68.171875 23.140625 59.71875 
Q 15.140625 51.265625 15.140625 37.453125 
Q 15.140625 23.25 22.515625 15.328125 
Q 29.890625 7.421875 42.4375 7.421875 
Q 51.078125 7.421875 57.125 10.75 
L 57.125 31.203125 
L 40.71875 31.203125 
L 40.71875 39.84375 
L 66.9375 39.84375 
z
" id="MicrosoftYaHei-71"/>
       <path d="M 52.546875 24.5625 
L 14.75 24.5625 
Q 14.984375 15.921875 19.46875 11.203125 
Q 23.96875 6.5 32.03125 6.5 
Q 41.109375 6.5 48.6875 12.3125 
L 48.6875 3.765625 
Q 41.546875 -1.265625 29.78125 -1.265625 
Q 18.0625 -1.265625 11.5 6.15625 
Q 4.9375 13.578125 4.9375 26.765625 
Q 4.9375 39.15625 12.140625 47.21875 
Q 19.34375 55.28125 30.03125 55.28125 
Q 40.625 55.28125 46.578125 48.46875 
Q 52.546875 41.65625 52.546875 29.390625 
z
M 42.96875 32.234375 
Q 42.921875 39.546875 39.5 43.546875 
Q 36.078125 47.5625 29.890625 47.5625 
Q 24.171875 47.5625 20 43.3125 
Q 15.828125 39.0625 14.75 32.234375 
z
" id="MicrosoftYaHei-101"/>
       <path d="M 54.203125 0 
L 44.671875 0 
L 44.671875 30.71875 
Q 44.671875 47.359375 32.515625 47.359375 
Q 26.21875 47.359375 22.15625 42.671875 
Q 18.109375 37.984375 18.109375 30.8125 
L 18.109375 0 
L 8.546875 0 
L 8.546875 54 
L 18.109375 54 
L 18.109375 45.0625 
L 18.3125 45.0625 
Q 24.421875 55.28125 36.03125 55.28125 
Q 44.921875 55.28125 49.5625 49.578125 
Q 54.203125 43.890625 54.203125 33.015625 
z
" id="MicrosoftYaHei-110"/>
       <path d="M 37.5 44.53125 
Q 35.109375 46.234375 30.90625 46.234375 
Q 25.34375 46.234375 21.71875 41.03125 
Q 18.109375 35.84375 18.109375 27.34375 
L 18.109375 0 
L 8.546875 0 
L 8.546875 54 
L 18.109375 54 
L 18.109375 43.015625 
L 18.3125 43.015625 
Q 22.40625 54.9375 32.46875 54.9375 
Q 35.75 54.9375 37.5 54.203125 
z
" id="MicrosoftYaHei-114"/>
       <path d="M 9.8125 50.25 
Q 17.875 55.28125 28.421875 55.28125 
Q 47.953125 55.28125 47.953125 34.765625 
L 47.953125 0 
L 38.484375 0 
L 38.484375 8.34375 
L 38.234375 8.34375 
Q 32.625 -1.265625 21.6875 -1.265625 
Q 13.8125 -1.265625 9.171875 2.984375 
Q 4.546875 7.234375 4.546875 14.453125 
Q 4.546875 29.59375 22.46875 32.078125 
L 38.484375 34.328125 
Q 38.484375 47.5625 27.546875 47.5625 
Q 17.828125 47.5625 9.8125 41.015625 
z
M 25.828125 25.390625 
Q 19.1875 24.515625 16.671875 22.0625 
Q 14.15625 19.625 14.15625 15.234375 
Q 14.15625 11.375 16.890625 8.9375 
Q 19.625 6.5 24.125 6.5 
Q 30.375 6.5 34.421875 10.890625 
Q 38.484375 15.28125 38.484375 21.921875 
L 38.484375 27.09375 
z
" id="MicrosoftYaHei-97"/>
       <path d="M 34.46875 0.53125 
Q 31.34375 -1.171875 26.03125 -1.171875 
Q 11.53125 -1.171875 11.53125 14.890625 
L 11.53125 46.09375 
L 2.25 46.09375 
L 2.25 54 
L 11.53125 54 
L 11.53125 67 
L 21.046875 70.015625 
L 21.046875 54 
L 34.46875 54 
L 34.46875 46.09375 
L 21.046875 46.09375 
L 21.046875 16.609375 
Q 21.046875 11.28125 22.84375 8.984375 
Q 24.65625 6.6875 28.859375 6.6875 
Q 32.078125 6.6875 34.46875 8.5 
z
" id="MicrosoftYaHei-116"/>
       <path d="M 7.375 73.046875 
Q 7.375 75.59375 9.109375 77.3125 
Q 10.84375 79.046875 13.375 79.046875 
Q 15.96875 79.046875 17.75 77.34375 
Q 19.53125 75.640625 19.53125 73.046875 
Q 19.53125 70.515625 17.75 68.828125 
Q 15.96875 67.140625 13.375 67.140625 
Q 10.796875 67.140625 9.078125 68.828125 
Q 7.375 70.515625 7.375 73.046875 
z
M 8.5 0 
L 8.5 54 
L 18.0625 54 
L 18.0625 0 
z
" id="MicrosoftYaHei-105"/>
       <path d="M 4.9375 26.421875 
Q 4.9375 39.796875 12.40625 47.53125 
Q 19.875 55.28125 32.671875 55.28125 
Q 44.828125 55.28125 51.734375 47.828125 
Q 58.640625 40.375 58.640625 27.25 
Q 58.640625 14.453125 51.265625 6.59375 
Q 43.890625 -1.265625 31.5 -1.265625 
Q 19.390625 -1.265625 12.15625 6.34375 
Q 4.9375 13.96875 4.9375 26.421875 
z
M 14.703125 26.703125 
Q 14.703125 17.390625 19.40625 12.015625 
Q 24.125 6.640625 32.078125 6.640625 
Q 40.28125 6.640625 44.578125 11.890625 
Q 48.875 17.140625 48.875 26.953125 
Q 48.875 36.8125 44.578125 42.078125 
Q 40.28125 47.359375 32.078125 47.359375 
Q 24.03125 47.359375 19.359375 41.84375 
Q 14.703125 36.328125 14.703125 26.703125 
z
" id="MicrosoftYaHei-111"/>
       <path id="MicrosoftYaHei-32"/>
       <path d="M 71.53125 0 
L 59.96875 0 
L 21.921875 58.84375 
Q 20.3125 61.328125 19.34375 63.765625 
L 19.046875 63.765625 
Q 19.4375 61.234375 19.4375 53.171875 
L 19.4375 0 
L 9.765625 0 
L 9.765625 75.640625 
L 22.015625 75.640625 
L 59.03125 17.828125 
Q 61.671875 13.71875 62.15625 12.59375 
L 62.359375 12.59375 
Q 61.859375 15.828125 61.859375 23.640625 
L 61.859375 75.640625 
L 71.53125 75.640625 
z
" id="MicrosoftYaHei-78"/>
       <path d="M 53.125 0 
L 43.5 0 
L 43.5 8.5 
L 43.3125 8.5 
Q 37.890625 -1.265625 26.65625 -1.265625 
Q 7.46875 -1.265625 7.46875 21.6875 
L 7.46875 54 
L 16.9375 54 
L 16.9375 23.09375 
Q 16.9375 6.640625 29.546875 6.640625 
Q 35.796875 6.640625 39.640625 11.25 
Q 43.5 15.875 43.5 22.90625 
L 43.5 54 
L 53.125 54 
z
" id="MicrosoftYaHei-117"/>
       <path d="M 86.28125 0 
L 76.703125 0 
L 76.703125 31 
Q 76.703125 39.796875 73.96875 43.578125 
Q 71.234375 47.359375 64.984375 47.359375 
Q 59.71875 47.359375 55.953125 42.421875 
Q 52.203125 37.5 52.203125 30.765625 
L 52.203125 0 
L 42.625 0 
L 42.625 31.984375 
Q 42.625 47.359375 30.765625 47.359375 
Q 25.296875 47.359375 21.703125 42.671875 
Q 18.109375 37.984375 18.109375 30.71875 
L 18.109375 0 
L 8.546875 0 
L 8.546875 54 
L 18.109375 54 
L 18.109375 45.453125 
L 18.3125 45.453125 
Q 24.078125 55.28125 35.15625 55.28125 
Q 40.578125 55.28125 44.71875 52.296875 
Q 48.875 49.3125 50.484375 44.234375 
Q 56.5 55.28125 68.453125 55.28125 
Q 86.28125 55.28125 86.28125 33.296875 
z
" id="MicrosoftYaHei-109"/>
       <path d="M 18.109375 7.625 
L 18.109375 0 
L 8.546875 0 
L 8.546875 79.9375 
L 18.109375 79.9375 
L 18.109375 44.671875 
L 18.3125 44.671875 
Q 24.65625 55.28125 36.859375 55.28125 
Q 47.015625 55.28125 53 48.125 
Q 58.984375 40.96875 58.984375 28.5625 
Q 58.984375 14.890625 52.265625 6.8125 
Q 45.5625 -1.265625 34.375 -1.265625 
Q 23.828125 -1.265625 18.3125 7.625 
z
M 18.0625 22.21875 
Q 18.0625 15.671875 22.3125 11.15625 
Q 26.5625 6.640625 32.953125 6.640625 
Q 40.578125 6.640625 44.875 12.5 
Q 49.171875 18.359375 49.171875 28.71875 
Q 49.171875 37.25 45.15625 42.296875 
Q 41.15625 47.359375 34.234375 47.359375 
Q 27.203125 47.359375 22.625 42.328125 
Q 18.0625 37.3125 18.0625 29.546875 
z
" id="MicrosoftYaHei-98"/>
      </defs>
      <use xlink:href="#MicrosoftYaHei-71"/>
      <use x="74.365234" xlink:href="#MicrosoftYaHei-101"/>
      <use x="131.103516" xlink:href="#MicrosoftYaHei-110"/>
      <use x="192.724609" xlink:href="#MicrosoftYaHei-101"/>
      <use x="249.462891" xlink:href="#MicrosoftYaHei-114"/>
      <use x="287.646484" xlink:href="#MicrosoftYaHei-97"/>
      <use x="342.919922" xlink:href="#MicrosoftYaHei-116"/>
      <use x="380.175781" xlink:href="#MicrosoftYaHei-105"/>
      <use x="406.787109" xlink:href="#MicrosoftYaHei-111"/>
      <use x="470.361328" xlink:href="#MicrosoftYaHei-110"/>
      <use x="531.982422" xlink:href="#MicrosoftYaHei-32"/>
      <use x="561.572266" xlink:href="#MicrosoftYaHei-78"/>
      <use x="642.871094" xlink:href="#MicrosoftYaHei-117"/>
      <use x="704.492188" xlink:href="#MicrosoftYaHei-109"/>
      <use x="798.193359" xlink:href="#MicrosoftYaHei-98"/>
      <use x="862.060547" xlink:href="#MicrosoftYaHei-101"/>
      <use x="918.798828" xlink:href="#MicrosoftYaHei-114"/>
     </g>
    </g>
   </g>
   <g id="matplotlib.axis_2">
    <g id="ytick_1">
     <g id="line2d_11">
      <path clip-path="url(#pa782c27964)" d="M 42.815625 277.551487 
L 399.935625 277.551487 
" style="fill:none;stroke:#b0b0b0;stroke-linecap:square;stroke-width:0.8;"/>
     </g>
     <g id="line2d_12">
      <defs>
       <path d="M 0 0 
L -3.5 0 
" id="m4be45aa05c" style="stroke:#000000;stroke-width:0.8;"/>
      </defs>
      <g>
       <use style="stroke:#000000;stroke-width:0.8;" x="42.815625" xlink:href="#m4be45aa05c" y="277.551487"/>
      </g>
     </g>
     <g id="text_7">
      <!-- 1.8 -->
      <g transform="translate(21.679688 281.548362)scale(0.1 -0.1)">
       <defs>
        <path d="M 27.828125 0 
L 27.828125 64.703125 
Q 25.59375 62.453125 20.234375 59.671875 
Q 14.890625 56.890625 10.359375 55.765625 
L 10.359375 65.140625 
Q 16.359375 66.796875 23.1875 70.4375 
Q 30.03125 74.078125 33.6875 77.296875 
L 37.3125 77.296875 
L 37.3125 0 
z
" id="MicrosoftYaHei-49"/>
        <path d="M 5.8125 5.03125 
Q 5.8125 7.671875 7.609375 9.46875 
Q 9.421875 11.28125 12.109375 11.28125 
Q 14.84375 11.28125 16.640625 9.453125 
Q 18.453125 7.625 18.453125 5.03125 
Q 18.453125 2.484375 16.640625 0.65625 
Q 14.84375 -1.171875 12.0625 -1.171875 
Q 9.375 -1.171875 7.59375 0.65625 
Q 5.8125 2.484375 5.8125 5.03125 
z
" id="MicrosoftYaHei-46"/>
       </defs>
       <use xlink:href="#MicrosoftYaHei-49"/>
       <use x="58.642578" xlink:href="#MicrosoftYaHei-46"/>
       <use x="82.714844" xlink:href="#MicrosoftYaHei-56"/>
      </g>
     </g>
    </g>
    <g id="ytick_2">
     <g id="line2d_13">
      <path clip-path="url(#pa782c27964)" d="M 42.815625 242.885346 
L 399.935625 242.885346 
" style="fill:none;stroke:#b0b0b0;stroke-linecap:square;stroke-width:0.8;"/>
     </g>
     <g id="line2d_14">
      <g>
       <use style="stroke:#000000;stroke-width:0.8;" x="42.815625" xlink:href="#m4be45aa05c" y="242.885346"/>
      </g>
     </g>
     <g id="text_8">
      <!-- 1.9 -->
      <g transform="translate(21.679688 246.882221)scale(0.1 -0.1)">
       <defs>
        <path d="M 9.03125 10.25 
Q 15.28125 6.640625 22.515625 6.640625 
Q 32.671875 6.640625 38.25 14.640625 
Q 43.84375 22.65625 43.84375 37.40625 
Q 43.75 37.3125 43.65625 37.40625 
Q 38.671875 27.9375 26.90625 27.9375 
Q 17.390625 27.9375 11.140625 34.46875 
Q 4.890625 41.015625 4.890625 51.46875 
Q 4.890625 62.59375 11.71875 69.75 
Q 18.5625 76.90625 29.4375 76.90625 
Q 40.71875 76.90625 47.0625 68.046875 
Q 53.421875 59.1875 53.421875 42.234375 
Q 53.421875 21.296875 45.21875 10.015625 
Q 37.015625 -1.265625 22.515625 -1.265625 
Q 14.546875 -1.265625 9.03125 1.3125 
z
M 14.546875 52.6875 
Q 14.546875 45.0625 18.453125 40.59375 
Q 22.359375 36.140625 29.25 36.140625 
Q 35.203125 36.140625 39.25 40.203125 
Q 43.3125 44.28125 43.3125 50.09375 
Q 43.3125 58.25 39.28125 63.59375 
Q 35.25 68.953125 28.65625 68.953125 
Q 22.5625 68.953125 18.546875 64.3125 
Q 14.546875 59.671875 14.546875 52.6875 
z
" id="MicrosoftYaHei-57"/>
       </defs>
       <use xlink:href="#MicrosoftYaHei-49"/>
       <use x="58.642578" xlink:href="#MicrosoftYaHei-46"/>
       <use x="82.714844" xlink:href="#MicrosoftYaHei-57"/>
      </g>
     </g>
    </g>
    <g id="ytick_3">
     <g id="line2d_15">
      <path clip-path="url(#pa782c27964)" d="M 42.815625 208.219205 
L 399.935625 208.219205 
" style="fill:none;stroke:#b0b0b0;stroke-linecap:square;stroke-width:0.8;"/>
     </g>
     <g id="line2d_16">
      <g>
       <use style="stroke:#000000;stroke-width:0.8;" x="42.815625" xlink:href="#m4be45aa05c" y="208.219205"/>
      </g>
     </g>
     <g id="text_9">
      <!-- 2.0 -->
      <g transform="translate(21.679688 212.21608)scale(0.1 -0.1)">
       <use xlink:href="#MicrosoftYaHei-50"/>
       <use x="58.642578" xlink:href="#MicrosoftYaHei-46"/>
       <use x="82.714844" xlink:href="#MicrosoftYaHei-48"/>
      </g>
     </g>
    </g>
    <g id="ytick_4">
     <g id="line2d_17">
      <path clip-path="url(#pa782c27964)" d="M 42.815625 173.553064 
L 399.935625 173.553064 
" style="fill:none;stroke:#b0b0b0;stroke-linecap:square;stroke-width:0.8;"/>
     </g>
     <g id="line2d_18">
      <g>
       <use style="stroke:#000000;stroke-width:0.8;" x="42.815625" xlink:href="#m4be45aa05c" y="173.553064"/>
      </g>
     </g>
     <g id="text_10">
      <!-- 2.1 -->
      <g transform="translate(21.679688 177.549939)scale(0.1 -0.1)">
       <use xlink:href="#MicrosoftYaHei-50"/>
       <use x="58.642578" xlink:href="#MicrosoftYaHei-46"/>
       <use x="82.714844" xlink:href="#MicrosoftYaHei-49"/>
      </g>
     </g>
    </g>
    <g id="ytick_5">
     <g id="line2d_19">
      <path clip-path="url(#pa782c27964)" d="M 42.815625 138.886923 
L 399.935625 138.886923 
" style="fill:none;stroke:#b0b0b0;stroke-linecap:square;stroke-width:0.8;"/>
     </g>
     <g id="line2d_20">
      <g>
       <use style="stroke:#000000;stroke-width:0.8;" x="42.815625" xlink:href="#m4be45aa05c" y="138.886923"/>
      </g>
     </g>
     <g id="text_11">
      <!-- 2.2 -->
      <g transform="translate(21.679688 142.883798)scale(0.1 -0.1)">
       <use xlink:href="#MicrosoftYaHei-50"/>
       <use x="58.642578" xlink:href="#MicrosoftYaHei-46"/>
       <use x="82.714844" xlink:href="#MicrosoftYaHei-50"/>
      </g>
     </g>
    </g>
    <g id="ytick_6">
     <g id="line2d_21">
      <path clip-path="url(#pa782c27964)" d="M 42.815625 104.220782 
L 399.935625 104.220782 
" style="fill:none;stroke:#b0b0b0;stroke-linecap:square;stroke-width:0.8;"/>
     </g>
     <g id="line2d_22">
      <g>
       <use style="stroke:#000000;stroke-width:0.8;" x="42.815625" xlink:href="#m4be45aa05c" y="104.220782"/>
      </g>
     </g>
     <g id="text_12">
      <!-- 2.3 -->
      <g transform="translate(21.679688 108.217657)scale(0.1 -0.1)">
       <defs>
        <path d="M 6.984375 12.640625 
Q 14.75 6.640625 24.515625 6.640625 
Q 32.328125 6.640625 36.890625 10.46875 
Q 41.453125 14.3125 41.453125 20.75 
Q 41.453125 35.109375 20.90625 35.109375 
L 14.59375 35.109375 
L 14.59375 43.015625 
L 20.609375 43.015625 
Q 38.8125 43.015625 38.8125 56.5 
Q 38.8125 68.953125 24.90625 68.953125 
Q 16.9375 68.953125 9.90625 63.578125 
L 9.90625 72.609375 
Q 17.328125 76.90625 27.25 76.90625 
Q 36.921875 76.90625 42.78125 71.84375 
Q 48.640625 66.796875 48.640625 58.734375 
Q 48.640625 43.890625 33.5 39.65625 
L 33.5 39.453125 
Q 41.703125 38.578125 46.453125 33.671875 
Q 51.21875 28.765625 51.21875 21.4375 
Q 51.21875 11.234375 43.875 4.984375 
Q 36.53125 -1.265625 24.3125 -1.265625 
Q 13.578125 -1.265625 6.984375 2.734375 
z
" id="MicrosoftYaHei-51"/>
       </defs>
       <use xlink:href="#MicrosoftYaHei-50"/>
       <use x="58.642578" xlink:href="#MicrosoftYaHei-46"/>
       <use x="82.714844" xlink:href="#MicrosoftYaHei-51"/>
      </g>
     </g>
    </g>
    <g id="ytick_7">
     <g id="line2d_23">
      <path clip-path="url(#pa782c27964)" d="M 42.815625 69.554641 
L 399.935625 69.554641 
" style="fill:none;stroke:#b0b0b0;stroke-linecap:square;stroke-width:0.8;"/>
     </g>
     <g id="line2d_24">
      <g>
       <use style="stroke:#000000;stroke-width:0.8;" x="42.815625" xlink:href="#m4be45aa05c" y="69.554641"/>
      </g>
     </g>
     <g id="text_13">
      <!-- 2.4 -->
      <g transform="translate(21.679688 73.551516)scale(0.1 -0.1)">
       <use xlink:href="#MicrosoftYaHei-50"/>
       <use x="58.642578" xlink:href="#MicrosoftYaHei-46"/>
       <use x="82.714844" xlink:href="#MicrosoftYaHei-52"/>
      </g>
     </g>
    </g>
    <g id="ytick_8">
     <g id="line2d_25">
      <path clip-path="url(#pa782c27964)" d="M 42.815625 34.8885 
L 399.935625 34.8885 
" style="fill:none;stroke:#b0b0b0;stroke-linecap:square;stroke-width:0.8;"/>
     </g>
     <g id="line2d_26">
      <g>
       <use style="stroke:#000000;stroke-width:0.8;" x="42.815625" xlink:href="#m4be45aa05c" y="34.8885"/>
      </g>
     </g>
     <g id="text_14">
      <!-- 2.5 -->
      <g transform="translate(21.679688 38.885375)scale(0.1 -0.1)">
       <defs>
        <path d="M 51.46875 23.34375 
Q 51.46875 12.25 44.109375 5.46875 
Q 36.765625 -1.3125 24.359375 -1.3125 
Q 13.71875 -1.3125 8.5 1.859375 
L 8.5 11.625 
Q 16.15625 6.640625 24.125 6.640625 
Q 32.03125 6.640625 36.890625 11 
Q 41.75 15.375 41.75 22.609375 
Q 41.75 29.828125 36.6875 33.859375 
Q 31.640625 37.890625 22.40625 37.890625 
Q 15.28125 37.890625 9.578125 37.25 
L 12.359375 75.640625 
L 47.703125 75.640625 
L 47.703125 67.234375 
L 20.40625 67.234375 
L 18.84375 45.796875 
L 25.734375 46.09375 
Q 37.75 46.09375 44.609375 40.109375 
Q 51.46875 34.125 51.46875 23.34375 
z
" id="MicrosoftYaHei-53"/>
       </defs>
       <use xlink:href="#MicrosoftYaHei-50"/>
       <use x="58.642578" xlink:href="#MicrosoftYaHei-46"/>
       <use x="82.714844" xlink:href="#MicrosoftYaHei-53"/>
      </g>
     </g>
    </g>
    <g id="text_15">
     <!-- Value -->
     <g transform="translate(15.19375 168.85475)rotate(-90)scale(0.1 -0.1)">
      <defs>
       <path d="M 66.75 75.640625 
L 38.96875 0 
L 28.125 0 
L 0.875 75.640625 
L 11.71875 75.640625 
L 32.078125 16.5 
Q 33.109375 13.578125 33.59375 9.71875 
L 33.84375 9.71875 
Q 34.234375 13.09375 35.546875 16.609375 
L 56.296875 75.640625 
z
" id="MicrosoftYaHei-86"/>
       <path d="M 8.5 0 
L 8.5 79.9375 
L 18.0625 79.9375 
L 18.0625 0 
z
" id="MicrosoftYaHei-108"/>
      </defs>
      <use xlink:href="#MicrosoftYaHei-86"/>
      <use x="59.876953" xlink:href="#MicrosoftYaHei-97"/>
      <use x="115.150391" xlink:href="#MicrosoftYaHei-108"/>
      <use x="141.761719" xlink:href="#MicrosoftYaHei-117"/>
      <use x="203.382812" xlink:href="#MicrosoftYaHei-101"/>
     </g>
    </g>
   </g>
   <g id="line2d_27">
    <path clip-path="url(#pa782c27964)" d="M 59.048352 276.752955 
L 59.756432 276.8085 
L 61.172591 276.171231 
L 62.234711 274.100268 
L 62.588751 273.271083 
L 62.942791 272.834857 
L 63.296831 271.871511 
L 64.00491 268.659888 
L 64.35895 266.659377 
L 65.06703 259.013726 
L 65.775109 249.124276 
L 66.129149 237.764554 
L 66.483189 232.415703 
L 67.191269 219.165244 
L 67.899349 213.202759 
L 68.253388 210.703284 
L 68.961468 207.945257 
L 69.315508 206.997871 
L 70.023588 205.811602 
L 70.377628 204.451579 
L 71.085707 203.565631 
L 71.439747 203.222627 
L 71.793787 202.693842 
L 72.147827 202.43836 
L 72.501867 202.010661 
L 72.855907 201.79095 
L 73.563986 199.042852 
L 75.688225 198.399087 
L 76.396305 198.007985 
L 77.104385 197.894931 
L 78.166504 196.994643 
L 79.228624 195.749081 
L 81.352863 191.03718 
L 81.706903 189.591783 
L 82.414983 185.175258 
L 83.477102 178.076664 
L 83.831142 173.482523 
L 84.185182 170.613796 
L 84.893262 152.749273 
L 86.663461 85.143017 
L 87.017501 75.856405 
L 87.371541 71.051347 
L 88.43366 48.906689 
L 89.14174 45.788888 
L 89.84982 40.761034 
L 90.203859 40.34845 
L 90.557899 38.69227 
L 90.911939 38.523019 
L 91.265979 37.63356 
L 91.620019 37.349338 
L 91.974059 36.533728 
L 92.328098 36.492085 
L 92.682138 36.331391 
L 93.036178 35.159716 
L 101.179095 34.889739 
L 383.702898 34.8885 
L 383.702898 34.8885 
" style="fill:none;stroke:#0000ff;stroke-linecap:square;stroke-width:2;"/>
   </g>
   <g id="line2d_28">
    <path clip-path="url(#pa782c27964)" d="M 59.048352 276.752955 
L 59.756432 276.8085 
L 61.172591 276.171231 
L 62.234711 274.100268 
L 62.588751 273.271083 
L 62.942791 272.834857 
L 63.296831 271.871511 
L 64.00491 268.659888 
L 64.35895 266.659377 
L 65.06703 259.013726 
L 65.775109 249.124276 
L 66.129149 237.764554 
L 66.483189 232.415703 
L 67.191269 219.165244 
L 67.899349 213.202759 
L 68.253388 210.703284 
L 68.961468 207.945257 
L 69.315508 206.997871 
L 70.023588 205.811602 
L 70.377628 204.451579 
L 71.085707 203.565631 
L 71.439747 203.222627 
L 71.793787 202.693842 
L 72.147827 202.43836 
L 72.501867 202.010661 
L 72.855907 201.79095 
L 73.563986 199.042852 
L 75.688225 198.399087 
L 76.396305 198.007985 
L 77.104385 197.894931 
L 78.166504 196.994643 
L 79.228624 195.749081 
L 81.352863 191.03718 
L 81.706903 189.591783 
L 82.414983 185.175258 
L 83.477102 178.076664 
L 83.831142 173.482523 
L 84.185182 170.613796 
L 84.893262 152.749273 
L 86.663461 85.143017 
L 87.017501 75.856405 
L 87.371541 71.051347 
L 88.43366 48.906689 
L 89.14174 45.788888 
L 89.84982 40.761034 
L 90.203859 40.34845 
L 90.557899 38.69227 
L 90.911939 38.523019 
L 91.265979 37.63356 
L 91.620019 37.349338 
L 91.974059 36.533728 
L 92.328098 36.492085 
L 92.682138 36.331391 
L 93.036178 35.159716 
L 101.179095 34.889739 
L 383.702898 34.8885 
L 383.702898 34.8885 
" style="fill:none;stroke:#0000ff;stroke-linecap:square;stroke-width:2;"/>
   </g>
   <g id="line2d_29">
    <path clip-path="url(#pa782c27964)" d="M 59.048352 276.752955 
L 59.756432 276.752955 
L 60.464512 276.22326 
L 61.172591 274.700038 
L 61.526631 274.218615 
L 61.880671 273.31657 
L 62.588751 270.474581 
L 63.296831 268.071715 
L 64.35895 258.370507 
L 64.71299 253.985606 
L 65.06703 248.074653 
L 65.42107 240.160164 
L 65.775109 227.530147 
L 66.129149 219.699779 
L 66.483189 207.329913 
L 67.191269 198.492577 
L 71.085707 198.492577 
L 71.793787 198.264229 
L 74.272066 198.181128 
L 76.042265 197.708483 
L 77.104385 197.316808 
L 78.520544 195.278445 
L 79.936704 191.561701 
L 80.644783 187.588998 
L 81.352863 183.123241 
L 81.706903 183.123241 
L 82.769022 171.548347 
L 83.123062 169.869215 
L 83.477102 163.090569 
L 84.539222 133.724185 
L 84.893262 113.614028 
L 85.601341 60.554385 
L 85.955381 44.914851 
L 86.309421 35.759437 
L 86.663461 35.391143 
L 87.017501 35.391143 
L 87.371541 35.084453 
L 89.49578 35.084453 
L 89.84982 34.931884 
L 91.974059 34.891272 
L 383.702898 34.8885 
L 383.702898 34.8885 
" style="fill:none;stroke:#ffa500;stroke-linecap:square;stroke-width:2;"/>
   </g>
   <g id="line2d_30">
    <path clip-path="url(#pa782c27964)" d="M 59.048352 276.752955 
L 59.756432 276.752955 
L 60.464512 276.22326 
L 61.172591 274.700038 
L 61.526631 274.218615 
L 61.880671 273.31657 
L 62.588751 270.474581 
L 63.296831 268.071715 
L 64.35895 258.370507 
L 64.71299 253.985606 
L 65.06703 248.074653 
L 65.42107 240.160164 
L 65.775109 227.530147 
L 66.129149 219.699779 
L 66.483189 207.329913 
L 67.191269 198.492577 
L 71.085707 198.492577 
L 71.793787 198.264229 
L 74.272066 198.181128 
L 76.042265 197.708483 
L 77.104385 197.316808 
L 78.520544 195.278445 
L 79.936704 191.561701 
L 80.644783 187.588998 
L 81.352863 183.123241 
L 81.706903 183.123241 
L 82.769022 171.548347 
L 83.123062 169.869215 
L 83.477102 163.090569 
L 84.539222 133.724185 
L 84.893262 113.614028 
L 85.601341 60.554385 
L 85.955381 44.914851 
L 86.309421 35.759437 
L 86.663461 35.391143 
L 87.017501 35.391143 
L 87.371541 35.084453 
L 89.49578 35.084453 
L 89.84982 34.931884 
L 91.974059 34.891272 
L 383.702898 34.8885 
L 383.702898 34.8885 
" style="fill:none;stroke:#ffa500;stroke-linecap:square;stroke-width:2;"/>
   </g>
   <g id="patch_3">
    <path d="M 42.815625 288.9045 
L 42.815625 22.7925 
" style="fill:none;stroke:#000000;stroke-linecap:square;stroke-linejoin:miter;stroke-width:0.8;"/>
   </g>
   <g id="patch_4">
    <path d="M 399.935625 288.9045 
L 399.935625 22.7925 
" style="fill:none;stroke:#000000;stroke-linecap:square;stroke-linejoin:miter;stroke-width:0.8;"/>
   </g>
   <g id="patch_5">
    <path d="M 42.815625 288.9045 
L 399.935625 288.9045 
" style="fill:none;stroke:#000000;stroke-linecap:square;stroke-linejoin:miter;stroke-width:0.8;"/>
   </g>
   <g id="patch_6">
    <path d="M 42.815625 22.7925 
L 399.935625 22.7925 
" style="fill:none;stroke:#000000;stroke-linecap:square;stroke-linejoin:miter;stroke-width:0.8;"/>
   </g>
   <g id="text_16">
    <!-- Trace Plot -->
    <g transform="translate(193.384688 16.7925)scale(0.12 -0.12)">
     <defs>
      <path d="M 55.46875 66.9375 
L 33.640625 66.9375 
L 33.640625 0 
L 23.828125 0 
L 23.828125 66.9375 
L 2.09375 66.9375 
L 2.09375 75.640625 
L 55.46875 75.640625 
z
" id="MicrosoftYaHei-84"/>
      <path d="M 45.84375 2.4375 
Q 39.65625 -1.265625 30.90625 -1.265625 
Q 19.1875 -1.265625 12.0625 6.25 
Q 4.9375 13.765625 4.9375 25.734375 
Q 4.9375 39.015625 12.625 47.140625 
Q 20.3125 55.28125 33.203125 55.28125 
Q 40.625 55.28125 45.90625 52.640625 
L 45.90625 43.171875 
Q 40.1875 47.359375 33.203125 47.359375 
Q 25 47.359375 19.84375 41.671875 
Q 14.703125 35.984375 14.703125 26.515625 
Q 14.703125 17.1875 19.5625 11.90625 
Q 24.421875 6.640625 32.671875 6.640625 
Q 39.65625 6.640625 45.84375 11.234375 
z
" id="MicrosoftYaHei-99"/>
      <path d="M 19.53125 28.265625 
L 19.53125 0 
L 9.765625 0 
L 9.765625 75.640625 
L 31.25 75.640625 
Q 43.5 75.640625 50.265625 69.71875 
Q 57.03125 63.8125 57.03125 52.828125 
Q 57.03125 41.703125 49.125 34.78125 
Q 41.21875 27.875 29.34375 28.265625 
z
M 19.53125 67.046875 
L 19.53125 36.859375 
L 28.5625 36.859375 
Q 37.5 36.859375 42.140625 40.890625 
Q 46.78125 44.921875 46.78125 52.4375 
Q 46.78125 67.046875 29.5 67.046875 
z
" id="MicrosoftYaHei-80"/>
     </defs>
     <use xlink:href="#MicrosoftYaHei-84"/>
     <use x="47.949219" xlink:href="#MicrosoftYaHei-114"/>
     <use x="86.132812" xlink:href="#MicrosoftYaHei-97"/>
     <use x="141.40625" xlink:href="#MicrosoftYaHei-99"/>
     <use x="191.552734" xlink:href="#MicrosoftYaHei-101"/>
     <use x="248.291016" xlink:href="#MicrosoftYaHei-32"/>
     <use x="277.880859" xlink:href="#MicrosoftYaHei-80"/>
     <use x="339.0625" xlink:href="#MicrosoftYaHei-108"/>
     <use x="365.673828" xlink:href="#MicrosoftYaHei-111"/>
     <use x="429.248047" xlink:href="#MicrosoftYaHei-116"/>
    </g>
   </g>
   <g id="legend_1">
    <g id="patch_7">
     <path d="M 244.77625 283.9045 
L 392.935625 283.9045 
Q 394.935625 283.9045 394.935625 281.9045 
L 394.935625 251.8295 
Q 394.935625 249.8295 392.935625 249.8295 
L 244.77625 249.8295 
Q 242.77625 249.8295 242.77625 251.8295 
L 242.77625 281.9045 
Q 242.77625 283.9045 244.77625 283.9045 
z
" style="fill:#ffffff;opacity:0.8;stroke:#cccccc;stroke-linejoin:miter;"/>
    </g>
    <g id="line2d_31">
     <path d="M 246.77625 258.32325 
L 266.77625 258.32325 
" style="fill:none;stroke:#0000ff;stroke-linecap:square;stroke-width:2;"/>
    </g>
    <g id="line2d_32"/>
    <g id="text_17">
     <!-- Average Objective Value -->
     <g transform="translate(274.77625 261.82325)scale(0.1 -0.1)">
      <defs>
       <path d="M 69.1875 0 
L 58.40625 0 
L 50.6875 20.703125 
L 19.1875 20.703125 
L 11.921875 0 
L 1.125 0 
L 29.9375 75.640625 
L 40.375 75.640625 
z
M 47.65625 29.25 
L 36.234375 60.6875 
Q 35.6875 62.203125 35.0625 65.96875 
L 34.8125 65.96875 
Q 34.28125 62.546875 33.59375 60.6875 
L 22.265625 29.25 
z
" id="MicrosoftYaHei-65"/>
       <path d="M 52.046875 54 
L 30.671875 0 
L 21 0 
L 0.6875 54 
L 11.140625 54 
L 24.3125 15.4375 
Q 25.921875 10.796875 26.21875 7.671875 
L 26.46875 7.671875 
Q 26.953125 11.765625 28.171875 15.234375 
L 42 54 
z
" id="MicrosoftYaHei-118"/>
       <path d="M 55.421875 4.546875 
Q 55.421875 -25.4375 26.3125 -25.4375 
Q 16.265625 -25.4375 8.84375 -21.6875 
L 8.84375 -12.453125 
Q 17.875 -17.484375 26.171875 -17.484375 
Q 45.84375 -17.484375 45.84375 3.21875 
L 45.84375 8.9375 
L 45.65625 8.9375 
Q 39.5 -1.265625 27.296875 -1.265625 
Q 17.140625 -1.265625 11.03125 6 
Q 4.9375 13.28125 4.9375 25.296875 
Q 4.9375 39.109375 11.671875 47.1875 
Q 18.40625 55.28125 29.640625 55.28125 
Q 40.4375 55.28125 45.65625 46.6875 
L 45.84375 46.6875 
L 45.84375 54 
L 55.421875 54 
z
M 45.84375 32.125 
Q 45.90625 38.375 41.65625 42.859375 
Q 37.40625 47.359375 31.203125 47.359375 
Q 23.390625 47.359375 19.046875 41.625 
Q 14.703125 35.890625 14.703125 25.875 
Q 14.703125 17.28125 18.890625 11.953125 
Q 23.09375 6.640625 30.03125 6.640625 
Q 37.015625 6.640625 41.453125 11.71875 
Q 45.90625 16.796875 45.84375 24.609375 
z
" id="MicrosoftYaHei-103"/>
       <path d="M 4.890625 36.921875 
Q 4.890625 55.21875 14.796875 66.0625 
Q 24.703125 76.90625 41.65625 76.90625 
Q 57.421875 76.90625 67.03125 66.3125 
Q 76.65625 55.71875 76.65625 38.71875 
Q 76.65625 20.3125 66.796875 9.515625 
Q 56.9375 -1.265625 40.4375 -1.265625 
Q 24.3125 -1.265625 14.59375 9.328125 
Q 4.890625 19.921875 4.890625 36.921875 
z
M 15.140625 37.703125 
Q 15.140625 23.96875 22.140625 15.6875 
Q 29.15625 7.421875 40.4375 7.421875 
Q 52.546875 7.421875 59.453125 15.359375 
Q 66.359375 23.296875 66.359375 37.546875 
Q 66.359375 52.203125 59.59375 60.15625 
Q 52.828125 68.109375 41.0625 68.109375 
Q 29.5 68.109375 22.3125 59.703125 
Q 15.140625 51.3125 15.140625 37.703125 
z
" id="MicrosoftYaHei-79"/>
       <path d="M 7.421875 73.046875 
Q 7.421875 75.59375 9.125 77.3125 
Q 10.84375 79.046875 13.421875 79.046875 
Q 16.0625 79.046875 17.8125 77.34375 
Q 19.578125 75.640625 19.578125 73.046875 
Q 19.578125 70.5625 17.796875 68.84375 
Q 16.015625 67.140625 13.421875 67.140625 
Q 10.84375 67.140625 9.125 68.875 
Q 7.421875 70.609375 7.421875 73.046875 
z
M 18.109375 2.09375 
Q 18.109375 -11.03125 12.671875 -18.234375 
Q 7.234375 -25.4375 -2.78125 -25.4375 
Q -6.5 -25.4375 -10.0625 -23.734375 
L -10.0625 -15.09375 
Q -6.25 -17.4375 -2.828125 -17.4375 
Q 8.546875 -17.4375 8.546875 0.6875 
L 8.546875 54 
L 18.109375 54 
z
" id="MicrosoftYaHei-106"/>
      </defs>
      <use xlink:href="#MicrosoftYaHei-65"/>
      <use x="68.111328" xlink:href="#MicrosoftYaHei-118"/>
      <use x="119.976562" xlink:href="#MicrosoftYaHei-101"/>
      <use x="176.714844" xlink:href="#MicrosoftYaHei-114"/>
      <use x="214.898438" xlink:href="#MicrosoftYaHei-97"/>
      <use x="270.171875" xlink:href="#MicrosoftYaHei-103"/>
      <use x="334.136719" xlink:href="#MicrosoftYaHei-101"/>
      <use x="390.875" xlink:href="#MicrosoftYaHei-32"/>
      <use x="420.464844" xlink:href="#MicrosoftYaHei-79"/>
      <use x="501.958984" xlink:href="#MicrosoftYaHei-98"/>
      <use x="565.826172" xlink:href="#MicrosoftYaHei-106"/>
      <use x="592.535156" xlink:href="#MicrosoftYaHei-101"/>
      <use x="649.273438" xlink:href="#MicrosoftYaHei-99"/>
      <use x="699.419922" xlink:href="#MicrosoftYaHei-116"/>
      <use x="736.675781" xlink:href="#MicrosoftYaHei-105"/>
      <use x="763.287109" xlink:href="#MicrosoftYaHei-118"/>
      <use x="815.152344" xlink:href="#MicrosoftYaHei-101"/>
      <use x="871.890625" xlink:href="#MicrosoftYaHei-32"/>
      <use x="901.480469" xlink:href="#MicrosoftYaHei-86"/>
      <use x="961.357422" xlink:href="#MicrosoftYaHei-97"/>
      <use x="1016.630859" xlink:href="#MicrosoftYaHei-108"/>
      <use x="1043.242188" xlink:href="#MicrosoftYaHei-117"/>
      <use x="1104.863281" xlink:href="#MicrosoftYaHei-101"/>
     </g>
    </g>
    <g id="line2d_33">
     <path d="M 246.77625 273.86075 
L 266.77625 273.86075 
" style="fill:none;stroke:#ffa500;stroke-linecap:square;stroke-width:2;"/>
    </g>
    <g id="line2d_34"/>
    <g id="text_18">
     <!-- Best Objective Value -->
     <g transform="translate(274.77625 277.36075)scale(0.1 -0.1)">
      <defs>
       <path d="M 9.765625 0 
L 9.765625 75.640625 
L 31.984375 75.640625 
Q 41.9375 75.640625 47.890625 70.875 
Q 53.859375 66.109375 53.859375 58.25 
Q 53.859375 52 50.3125 47.21875 
Q 46.78125 42.4375 40.578125 40.4375 
L 40.578125 40.234375 
Q 48.296875 39.359375 52.90625 34.390625 
Q 57.515625 29.4375 57.515625 21.828125 
Q 57.515625 12.0625 50.5 6.03125 
Q 43.5 0 32.5625 0 
z
M 19.53125 67.09375 
L 19.53125 43.40625 
L 28.421875 43.40625 
Q 35.5 43.40625 39.53125 46.84375 
Q 43.5625 50.296875 43.5625 56.390625 
Q 43.5625 67.09375 29.296875 67.09375 
z
M 19.53125 34.90625 
L 19.53125 8.546875 
L 31.25 8.546875 
Q 38.921875 8.546875 43.09375 12.078125 
Q 47.265625 15.625 47.265625 21.921875 
Q 47.265625 34.90625 29.640625 34.90625 
z
" id="MicrosoftYaHei-66"/>
       <path d="M 5.515625 11.671875 
Q 12.75 6.453125 21.09375 6.453125 
Q 32.28125 6.453125 32.28125 13.765625 
Q 32.28125 16.890625 29.828125 18.921875 
Q 27.390625 20.953125 19.921875 23.734375 
Q 10.9375 27.34375 8.25 30.875 
Q 5.5625 34.421875 5.5625 39.453125 
Q 5.5625 46.625 11.640625 50.953125 
Q 17.71875 55.28125 26.609375 55.28125 
Q 33.5 55.28125 39.40625 52.875 
L 39.40625 43.65625 
Q 33.34375 47.5625 25.6875 47.5625 
Q 21.09375 47.5625 18.203125 45.5625 
Q 15.328125 43.5625 15.328125 40.28125 
Q 15.328125 37.0625 17.40625 35.25 
Q 19.484375 33.453125 26.609375 30.609375 
Q 35.640625 27.25 38.8125 23.625 
Q 42 20.015625 42 14.703125 
Q 42 7.28125 35.90625 3 
Q 29.828125 -1.265625 20.171875 -1.265625 
Q 11.765625 -1.265625 5.515625 1.90625 
z
" id="MicrosoftYaHei-115"/>
      </defs>
      <use xlink:href="#MicrosoftYaHei-66"/>
      <use x="62.744141" xlink:href="#MicrosoftYaHei-101"/>
      <use x="119.482422" xlink:href="#MicrosoftYaHei-115"/>
      <use x="165.771484" xlink:href="#MicrosoftYaHei-116"/>
      <use x="203.027344" xlink:href="#MicrosoftYaHei-32"/>
      <use x="232.617188" xlink:href="#MicrosoftYaHei-79"/>
      <use x="314.111328" xlink:href="#MicrosoftYaHei-98"/>
      <use x="377.978516" xlink:href="#MicrosoftYaHei-106"/>
      <use x="404.6875" xlink:href="#MicrosoftYaHei-101"/>
      <use x="461.425781" xlink:href="#MicrosoftYaHei-99"/>
      <use x="511.572266" xlink:href="#MicrosoftYaHei-116"/>
      <use x="548.828125" xlink:href="#MicrosoftYaHei-105"/>
      <use x="575.439453" xlink:href="#MicrosoftYaHei-118"/>
      <use x="627.304688" xlink:href="#MicrosoftYaHei-101"/>
      <use x="684.042969" xlink:href="#MicrosoftYaHei-32"/>
      <use x="713.632812" xlink:href="#MicrosoftYaHei-86"/>
      <use x="773.509766" xlink:href="#MicrosoftYaHei-97"/>
      <use x="828.783203" xlink:href="#MicrosoftYaHei-108"/>
      <use x="855.394531" xlink:href="#MicrosoftYaHei-117"/>
      <use x="917.015625" xlink:href="#MicrosoftYaHei-101"/>
     </g>
    </g>
   </g>
  </g>
 </g>
 <defs>
  <clipPath id="pa782c27964">
   <rect height="266.112" width="357.12" x="42.815625" y="22.7925"/>
  </clipPath>
 </defs>
</svg>
